<svg xmlns="http://www.w3.org/2000/svg" xmlns:xlink="http://www.w3.org/1999/xlink" width="500" zoomAndPan="magnify" viewBox="0 0 375 74.999997" height="100" preserveAspectRatio="xMidYMid meet" version="1.2"><defs><clipPath id="217d13b0b5"><path d="M 0.28125 2.378906 L 73.78125 2.378906 L 73.78125 72.878906 L 0.28125 72.878906 Z M 0.28125 2.378906 "/></clipPath><clipPath id="b55efcbb63"><path d="M 81 2.378906 L 154.292969 2.378906 L 154.292969 72.878906 L 81 72.878906 Z M 81 2.378906 "/></clipPath><clipPath id="8bbe46066a"><path d="M 162.414062 2.378906 L 235.914062 2.378906 L 235.914062 72.878906 L 162.414062 72.878906 Z M 162.414062 2.378906 "/></clipPath><clipPath id="d0b45b84b0"><path d="M 244.390625 2.378906 L 317.890625 2.378906 L 317.890625 72.878906 L 244.390625 72.878906 Z M 244.390625 2.378906 "/></clipPath><clipPath id="b0902b0783"><path d="M 327.019531 2.378906 L 375 2.378906 L 375 72.878906 L 327.019531 72.878906 Z M 327.019531 2.378906 "/></clipPath></defs><g id="00338f5303"><g clip-rule="nonzero" clip-path="url(#217d13b0b5)"><path style=" stroke:none;fill-rule:nonzero;fill:#fbca41;fill-opacity:1;" d="M 72.34375 32.9375 L 57.5 47.503906 L 61 68.070312 C 61.253906 69.539062 60.652344 71.019531 59.457031 71.890625 C 58.785156 72.386719 57.980469 72.636719 57.179688 72.636719 C 56.558594 72.636719 55.945312 72.488281 55.375 72.1875 L 37.027344 62.476562 L 18.683594 72.1875 C 17.375 72.882812 15.792969 72.765625 14.597656 71.890625 C 13.402344 71.015625 12.808594 69.539062 13.054688 68.070312 L 16.5625 47.503906 L 1.71875 32.9375 C 0.660156 31.898438 0.28125 30.347656 0.738281 28.933594 C 1.195312 27.523438 2.40625 26.492188 3.867188 26.277344 L 24.378906 23.277344 L 33.550781 4.5625 C 34.203125 3.226562 35.550781 2.386719 37.027344 2.386719 C 38.503906 2.386719 39.851562 3.226562 40.507812 4.5625 L 49.679688 23.277344 L 70.191406 26.277344 C 71.652344 26.492188 72.863281 27.523438 73.320312 28.933594 C 73.777344 30.347656 73.394531 31.898438 72.339844 32.9375 Z M 72.34375 32.9375 "/></g><g clip-rule="nonzero" clip-path="url(#b55efcbb63)"><path style=" stroke:none;fill-rule:nonzero;fill:#fbca41;fill-opacity:1;" d="M 152.855469 32.9375 L 138.011719 47.503906 L 141.515625 68.070312 C 141.765625 69.539062 141.167969 71.019531 139.972656 71.890625 C 139.296875 72.386719 138.496094 72.636719 137.695312 72.636719 C 137.074219 72.636719 136.457031 72.488281 135.890625 72.1875 L 117.542969 62.476562 L 99.199219 72.1875 C 97.890625 72.882812 96.308594 72.765625 95.109375 71.890625 C 93.917969 71.015625 93.320312 69.539062 93.570312 68.070312 L 97.074219 47.503906 L 82.230469 32.9375 C 81.171875 31.898438 80.792969 30.347656 81.25 28.933594 C 81.707031 27.523438 82.921875 26.492188 84.382812 26.277344 L 104.894531 23.277344 L 114.066406 4.5625 C 114.714844 3.226562 116.0625 2.386719 117.542969 2.386719 C 119.019531 2.386719 120.367188 3.226562 121.019531 4.5625 L 130.191406 23.277344 L 150.703125 26.277344 C 152.164062 26.492188 153.378906 27.523438 153.835938 28.933594 C 154.292969 30.347656 153.90625 31.898438 152.855469 32.9375 Z M 152.855469 32.9375 "/></g><g clip-rule="nonzero" clip-path="url(#8bbe46066a)"><path style=" stroke:none;fill-rule:nonzero;fill:#fbca41;fill-opacity:1;" d="M 234.476562 32.9375 L 219.632812 47.503906 L 223.132812 68.070312 C 223.386719 69.539062 222.785156 71.019531 221.59375 71.890625 C 220.917969 72.386719 220.113281 72.636719 219.3125 72.636719 C 218.695312 72.636719 218.078125 72.488281 217.507812 72.1875 L 199.160156 62.476562 L 180.816406 72.1875 C 179.507812 72.882812 177.925781 72.765625 176.730469 71.890625 C 175.535156 71.015625 174.941406 69.539062 175.1875 68.070312 L 178.695312 47.503906 L 163.851562 32.9375 C 162.792969 31.898438 162.414062 30.347656 162.871094 28.933594 C 163.328125 27.523438 164.539062 26.492188 166 26.277344 L 186.511719 23.277344 L 195.683594 4.5625 C 196.335938 3.226562 197.683594 2.386719 199.160156 2.386719 C 200.636719 2.386719 201.984375 3.226562 202.640625 4.5625 L 211.8125 23.277344 L 232.324219 26.277344 C 233.785156 26.492188 234.996094 27.523438 235.453125 28.933594 C 235.910156 30.347656 235.527344 31.898438 234.472656 32.9375 Z M 234.476562 32.9375 "/></g><g clip-rule="nonzero" clip-path="url(#d0b45b84b0)"><path style=" stroke:none;fill-rule:nonzero;fill:#fbca41;fill-opacity:1;" d="M 316.453125 32.9375 L 301.605469 47.503906 L 305.109375 68.070312 C 305.363281 69.539062 304.761719 71.019531 303.566406 71.890625 C 302.894531 72.386719 302.089844 72.636719 301.289062 72.636719 C 300.667969 72.636719 300.054688 72.488281 299.484375 72.1875 L 281.136719 62.476562 L 262.792969 72.1875 C 261.484375 72.882812 259.902344 72.765625 258.707031 71.890625 C 257.511719 71.015625 256.914062 69.539062 257.164062 68.070312 L 260.671875 47.503906 L 245.824219 32.9375 C 244.769531 31.898438 244.390625 30.347656 244.84375 28.933594 C 245.300781 27.523438 246.515625 26.492188 247.976562 26.277344 L 268.488281 23.277344 L 277.660156 4.5625 C 278.3125 3.226562 279.660156 2.386719 281.136719 2.386719 C 282.613281 2.386719 283.960938 3.226562 284.613281 4.5625 L 293.785156 23.277344 L 314.300781 26.277344 C 315.761719 26.492188 316.972656 27.523438 317.429688 28.933594 C 317.886719 30.347656 317.503906 31.898438 316.449219 32.9375 Z M 316.453125 32.9375 "/></g><g clip-rule="nonzero" clip-path="url(#b0902b0783)"><path style=" stroke:none;fill-rule:nonzero;fill:#fbca41;fill-opacity:1;" d="M 399.082031 32.9375 L 384.238281 47.503906 L 387.738281 68.070312 C 387.992188 69.539062 387.390625 71.019531 386.195312 71.890625 C 385.523438 72.386719 384.71875 72.636719 383.917969 72.636719 C 383.296875 72.636719 382.683594 72.488281 382.113281 72.1875 L 363.765625 62.476562 L 345.421875 72.1875 C 344.113281 72.882812 342.53125 72.765625 341.335938 71.890625 C 340.140625 71.015625 339.542969 69.539062 339.792969 68.070312 L 343.300781 47.503906 L 328.457031 32.9375 C 327.398438 31.898438 327.019531 30.347656 327.472656 28.933594 C 327.929688 27.523438 329.144531 26.492188 330.605469 26.277344 L 351.117188 23.277344 L 360.289062 4.5625 C 360.941406 3.226562 362.289062 2.386719 363.765625 2.386719 C 365.242188 2.386719 366.589844 3.226562 367.242188 4.5625 L 376.414062 23.277344 L 396.929688 26.277344 C 398.390625 26.492188 399.601562 27.523438 400.058594 28.933594 C 400.515625 30.347656 400.132812 31.898438 399.078125 32.9375 Z M 399.082031 32.9375 "/></g></g></svg>