<svg xmlns="http://www.w3.org/2000/svg" width="250" height="250" version="1.2" viewBox="0 0 187.5 187.5"><defs><clipPath id="a"><path d="M0 26h187v135.336H0Zm0 0"/></clipPath><clipPath id="b"><path d="M71.531 88h2.992v2.863h-2.992Zm0 0"/></clipPath></defs><g clip-path="url(#a)"><path d="M3.527 144.727a6.7 6.7 0 0 1 1.29-2.395c.035 1.258.18 2.512.417 3.727.832 4.25 3.075 8.015 6.477 10.687.59.465 1.21.902 1.851 1.313-1.128.468-2.312.68-3.496.039-1.62-.875-2.964-2.438-4.082-3.871-1.125-1.442-2.05-3.082-2.52-4.856-.405-1.539-.405-3.101.063-4.644m4.711-8.141q.1-.305.215-.606.031-.076.063-.16c0 .004.101-.234.117-.27a11 11 0 0 1 .902-1.59 2 2 0 0 1 .102-.14c.043-.05.117-.148.133-.164a7.6 7.6 0 0 1 .785-.8c.004 0 .066-.051.11-.086a6 6 0 0 1 .633-.398 3.9 3.9 0 0 1 1.245-.4c.723-.105 1.453-.035 2.168.13-.207.168-.414.332-.621.5-.578.468-1.297.906-1.64 1.582-2.16 4.23-2.552 9.27-.61 13.652 1.793 4.055 5.644 6.742 9.98 7.379 1.325.195 2.953.45 4.22-.09l1.67-.719a8 8 0 0 1-.116.742 9 9 0 0 1-.196.723l-.093.258c-.012.035-.024.062-.028.082a.4.4 0 0 0-.039.074 6 6 0 0 1-.277.504c-.043.066-.16.227-.168.238-.145.172-.3.325-.469.477.047-.047-.172.133-.238.172a4 4 0 0 1-.363.215c-.075.039-.543.222-.211.105-.157.055-.309.113-.469.16-.3.09-.602.145-.906.211h-.016c-.074.008-.148.02-.223.024-.207.02-.41.03-.617.035a9 9 0 0 1-1.047-.024c-.183-.011-.363-.03-.543-.047-.03-.003-.101-.015-.148-.02l-.305-.046a17 17 0 0 1-2.418-.617 15 15 0 0 1-2.199-.914c-.82-.41-1.61-.88-2.367-1.395a15.5 15.5 0 0 1-2.012-1.633c-.594-.562-1.289-1.324-1.687-1.859-1.14-1.535-1.88-3.121-2.39-4.902-.97-3.39-1.024-7.055.073-10.383m41.52-27.2a490 490 0 0 1 16.683-10.8 29 29 0 0 0-.207 3.836c.106 8.297 4.028 15.996 10.293 21.324a39 39 0 0 0 1.993 1.578 450 450 0 0 1-41.532 22.028q-6 2.789-12.082 5.402-.746.037-1.492-.008-.27-.017-.539-.039l-.344-.039q-.034-.007-.062-.008l-.067-.012a16 16 0 0 1-1.707-.37c-2.277-.653-4.39-2.11-5.687-4.122-1.371-2.117-1.918-4.574-1.79-7.094.071-1.343.36-2.664.817-3.953.18-.504.387-1.27.735-1.672.222-.265.59-.48.859-.699.383-.312.766-.62 1.152-.933a481 481 0 0 1 32.977-24.418m20.887-16.902.867-.761c-1.45 4.554-1.75 9.496-.848 14.156 1.434 7.398 6.012 13.812 12.266 17.91q1.191.78 2.453 1.438-.693.204-1.39.402a28 28 0 0 1-2.68-1.574 32 32 0 0 1-1.876-1.332c-.003 0-.007-.004-.011-.004-.047-.04-.094-.074-.137-.11l-.383-.304a32 32 0 0 1-2.785-2.563c-2.074-2.156-3.723-4.496-5.023-7.312-1.532-3.313-2.301-7.188-2.223-10.934.066-3.074.68-6.094 1.77-9.012m28.745-22.13a270 270 0 0 1 6.406-4.12c-.07.581-.14 1.163-.2 1.745a46 46 0 0 0-.222 3.649c-.215 9.601 2.793 19.379 8.332 27.223 1.356 1.918 2.863 3.718 4.469 5.43 1.648 1.75 3.57 3.241 5.504 4.66a181.7 181.7 0 0 1-31.586 14.163q-1.476.496-2.957.97a1.6 1.6 0 0 0-.328-.169c-.196-.074-.387-.16-.579-.234.43.168.047.02-.113-.055q-.257-.112-.508-.23-1.301-.617-2.527-1.364a29 29 0 0 1-2.281-1.539c-.043-.035-.23-.175-.285-.218-.036-.028-.094-.075-.11-.086q-.14-.114-.285-.227a27.7 27.7 0 0 1-3.3-3.187c-2.368-2.711-4.208-6.141-5.184-9.743a24.7 24.7 0 0 1-.856-6.273 25.4 25.4 0 0 1 .504-5.29 29 29 0 0 1 1.48-4.972c.012-.031.067-.156.098-.234.032-.074.094-.219.106-.25q.064-.146.133-.293.203-.446.425-.879c.118-.227.168-.469.164-.71a260 260 0 0 1 23.7-17.767m9.039-4.015c-.02.066-.035.133-.055.203.008-.094.027-.176.055-.203m.226-.715c.14-.824.242-1.656.39-2.477.122-.675.27-1.351.493-2.003.102-.293.215-.602.383-.872.219-.347.605-.605.918-.878.16-.149.324-.29.488-.438-1.691 6.617-1.902 13.637-.652 20.336 1.82 9.785 6.941 18.812 14.25 25.523a47 47 0 0 0 4.61 3.735q-.781.122-1.567.226c-2.57-1.828-5.188-3.625-7.438-5.859a40 40 0 0 1-5.8-7.3c-3.407-5.505-5.743-11.763-6.465-18.216-.364-3.265-.34-6.566.011-9.832l.07-.613c.008-.062.012-.215.02-.355q.128-.186.192-.407c.054-.18.07-.386.097-.57m17.692-18.82c5.175-3.817 10.636-7.207 16.23-10.367-1.21 3.117-1.73 6.574-1.879 9.874-.297 6.77.781 13.708 2.664 20.204 2.075 7.156 5.43 14.156 9.867 20.14a48 48 0 0 0 2.625 3.25 121 121 0 0 1-14.035 6.973c-.656.273-1.129.875-.922 1.625.172.625.961 1.2 1.622.926a127 127 0 0 0 15.214-7.559c1.985 1.926 4.227 3.602 6.692 4.656-8.903 4.727-18.332 8.48-28.168 10.735-.985.222-1.969.433-2.961.629l-.094-.067a43 43 0 0 1-3.031-2.062c-.149-.11-.29-.219-.434-.325a2 2 0 0 0-.148-.113 45 45 0 0 1-1.863-1.543c-2.946-2.558-5.555-5.469-7.684-8.61-5.938-8.737-8.45-19.398-7.215-29.882.016-.152.035-.297.055-.445.02-.176.012-.11.05-.375q.06-.42.13-.84.127-.802.285-1.594.286-1.462.672-2.902a43 43 0 0 1 1.093-3.508q1.669-1.461 3.356-2.898c2.531-2.149 5.222-3.965 7.879-5.922m20.746-13.235q.022-.032.039-.05c0-.004.004-.004.004-.008q.094-.119.187-.23.147-.184.305-.36.353-.4.73-.77a14 14 0 0 1 .946-.824c.015-.008.03-.023.054-.039q.24-.177.493-.344a12 12 0 0 1 3.007-1.453 14 14 0 0 1 2.672-.57 16.7 16.7 0 0 1 2.809-.04l.398.036a7 7 0 0 1 .469.05 16.4 16.4 0 0 1 3.64 1c.012.009.325.141.376.16q.052.029.105.052a15 15 0 0 0-5.441-.301c-2.075.27-4.067.93-5.824 2.082-5.133 3.473-6.747 9.855-7.024 15.727-.285 6.062.676 12.277 2.36 18.093 1.84 6.36 4.812 12.582 8.746 17.91 3.585 4.86 8.804 10.121 15.312 9.98q.448-.011.883-.054c.183.016.363-.004.531-.07 1.957-.293 3.805-1.09 5.445-2.203q-.253.242-.511.472-.211.181-.422.356l-.207.164-.055.039c-.52.39-1.055.766-1.617 1.098-1.582.933-3.32 1.53-5.215 1.582-.34.007-.684 0-1.023-.02-.18-.012-.36-.031-.536-.047q-.032-.002-.05-.004-.16-.021-.313-.05a13 13 0 0 1-2.168-.57c-.176-.063-.347-.13-.523-.196-.016-.008-.074-.031-.102-.043q-.074-.033-.156-.066-.576-.258-1.133-.563a20 20 0 0 1-1.996-1.246c-.652-.46-1.14-.855-1.82-1.453q-.99-.88-1.899-1.836c-2.547-2.664-4.597-5.621-6.468-8.84a66.5 66.5 0 0 1-4.743-9.953 62 62 0 0 1-2.55-8.7c-.739-3.366-1.188-6.347-1.403-9.741a50 50 0 0 1-.078-5.137 40 40 0 0 1 .242-3.164c.004-.031.043-.332.047-.375.059-.422.13-.848.203-1.27a25.4 25.4 0 0 1 1.246-4.535l.118-.289c.004-.016.02-.047.03-.078q.1-.228.204-.457.245-.526.52-1.035.516-.945 1.156-1.817m24.426 57.457c-.32.008-.645 0-.965-.02-.14-.01-.278-.027-.418-.038q-.024.001-.047-.004a11.5 11.5 0 0 1-2.91-.836 15 15 0 0 1-.965-.48 18 18 0 0 1-1.828-1.153 18 18 0 0 1-1.551-1.25 29 29 0 0 1-1.645-1.59c-4.41-4.62-7.718-10.754-9.937-16.648a55 55 0 0 1-2.29-7.809 63 63 0 0 1-.78-4.273 45 45 0 0 1-.254-2 57 57 0 0 1-.2-2.317 45 45 0 0 1-.066-4.574c.059-1.535.184-2.851.426-4.195.25-1.375.601-2.735 1.101-4.043.164-.418.118-.305.301-.707q.218-.475.465-.926.239-.444.508-.863a1 1 0 0 0 .172-.09c3.937-2.547 9.328-1.727 13.105.754 1.801 1.183 3.332 2.793 4.653 4.504.73.945 1.398 1.937 2.046 2.937.172.266.133.266.239.547.117.317.304.598.472.887q.503.868.977 1.754a52.7 52.7 0 0 1 5.191 14.5c.5 2.484.805 5 .926 7.531q.093 1.97.05 3.945a65 65 0 0 1-.077 1.946c-.02.293-.035.586-.059.879-.012.19-.05.398-.047.585l-.015.122c-.282.59-.25 1.328-.344 1.933a29 29 0 0 1-.36 1.836c-.28 1.188-.652 2.414-1.132 3.508-.973 2.2-2.375 4.191-4.305 5.621a8 8 0 0 1-.437.027m6.074-2.422a1 1 0 0 1-.098.075.1.1 0 0 1-.039.027c1.488-2.418 2.406-5.203 2.852-8.055q.086-.552.156-1.109c.012-.106.039-.23.039-.336v-.023c.344-.621.277-1.5.32-2.18q.143-2.132.121-4.27a56 56 0 0 0-.742-8.492c-.887-5.437-2.644-10.71-5.101-15.633a58 58 0 0 0-.875-1.687c-.34-.625-.817-1.258-1.086-1.91-.055-.133-.168-.532-.328-.793-.149-.246-.31-.48-.47-.719-.347-.52-.698-1.04-1.066-1.547-1.507-2.094-3.191-4.031-5.254-5.598-2.793-2.117-6.484-3.39-10.082-3.34a11 11 0 0 1 2.52-.558 15 15 0 0 1 1.867-.055q.3.013.598.032l.394.035.301.035c.57.086 1.137.203 1.695.36q.425.117.836.265.183.059.36.129c.066.023.36.144.375.148a17.3 17.3 0 0 1 3.027 1.719c.125.086.242.176.363.262.04.031.157.12.196.148.242.192.484.39.718.59.457.395.903.809 1.329 1.234a31 31 0 0 1 2.468 2.809l.008.012c.047.062.094.12.14.183q.139.188.278.375.294.398.57.801a46 46 0 0 1 2.895 4.785 60 60 0 0 1 1.543 3.133c.226.484.441.977.652 1.469.012.023.07.168.102.242.035.074.09.21.097.234q.152.364.297.727a66 66 0 0 1 1.606 4.445c.644 2.012 1.11 4.074 1.484 6.153.094.503.176 1.003.258 1.503l.121.81.059.413c.007.078.02.156.027.23.156 1.227.277 2.458.352 3.692.082 1.324.113 2.648.082 3.973q-.025 1.031-.102 2.062-.04.469-.086.938c-.02.168-.035.332-.055.5q-.018.122-.03.25l-.013.066q0 .03-.007.078c-.203 1.313-.465 2.617-.848 3.887a20 20 0 0 1-.688 1.922 22 22 0 0 1-.3.664c-.149.305-.309.61-.473.906q-.47.845-1.039 1.617l-.098.13c-.02.023-.05.066-.062.077q-.151.189-.309.371a13 13 0 0 1-1.363 1.38 15 15 0 0 1-.492.41m-.399 3.715c.047-.035.04-.03 0 0M3.535 155.332c1.344 1.813 2.945 3.684 4.887 4.871 1.262.766 2.676 1.098 4.14.887 1.38-.2 2.641-.844 3.856-1.504 1.977.867 4.09 1.41 6.23 1.48 1.727.059 3.614-.25 5.036-1.293 1.953-1.421 2.609-3.742 2.714-6.066a1.1 1.1 0 0 0-.074-.45 455 455 0 0 0 18.7-8.773 449 449 0 0 0 28.882-15.718c1.02-.602 2.031-1.207 3.043-1.817q.65.394 1.317.758c.246.129.496.262.75.383.273.133.535.273.851.273.606 0 1.301-.316 1.88-.488a184.6 184.6 0 0 0 39.602-16.844c.245-.14.413-.324.514-.523l.77.547c.305.215.601.41.992.41.332.004.715-.094 1.04-.137a98 98 0 0 0 1.866-.273 96 96 0 0 0 6.91-1.356c9.278-2.176 18.227-5.68 26.696-10.039a137 137 0 0 0 3.078-1.633c.25-.136.422-.312.523-.511.828.14 1.68.207 2.551.18 3.715-.098 7.172-1.891 9.828-4.423 2.332-2.218 3.922-5.097 4.93-8.136 1.95-5.867 1.879-12.348 1.133-18.422-.41-3.332-.977-6.688-1.914-9.918-1.02-3.531-2.38-6.988-3.922-10.324-2.426-5.23-5.496-10.383-9.703-14.375-2.145-2.035-4.598-3.723-7.364-4.785-2.625-1.016-5.53-1.333-8.316-.97-2.297.302-4.5 1.04-6.441 2.321a14.7 14.7 0 0 0-3.793 3.734c-.204.004-.41.055-.625.172-4.223 2.313-8.387 4.73-12.426 7.352a133 133 0 0 0-5.988 4.11c-.985.71-1.93 1.57-2.97 2.187-.991.586-1.921 1.304-2.84 2-4 3.023-7.694 6.468-11.452 9.785-1.285 1.137-1.715 2.976-1.989 4.73A266 266 0 0 0 79.72 81.422a262 262 0 0 0-6.059 4.969c-.984.828-1.96 1.668-2.933 2.511q-.644.563-1.282 1.125c-.52.457-.98.813-1.238 1.477a29 29 0 0 0-1.133 3.594l-.11.062a490 490 0 0 0-27.296 18.012 480 480 0 0 0-13.8 10.16 488 488 0 0 0-6.962 5.406c-.578.461-1.156.918-1.73 1.38-.047-.02-.09-.044-.137-.06-2.379-.894-5.176-1.187-7.422.235-1.406.89-2.469 2.266-3.183 3.758-.715 1.492-1.172 3.09-1.418 4.73C1.379 140.797 0 145.363.742 149.29c.418 2.191 1.473 4.258 2.793 6.043" style="stroke:none;fill-rule:nonzero;fill:#000;fill-opacity:1"/></g><path d="M25.465 133.855a260 260 0 0 0 21.062-15.414c.551-.449.465-1.402 0-1.87-.55-.548-1.312-.45-1.867 0a254 254 0 0 1-20.527 15.003c-.594.39-.844 1.168-.473 1.809.348.59 1.207.867 1.805.472m25.16-18.109a26.5 26.5 0 0 1 3.992-2.687c1.485-.825.156-3.11-1.332-2.286a30.3 30.3 0 0 0-4.523 3.106c-.555.453-.469 1.398 0 1.867.543.547 1.312.457 1.863 0m84.051-13.136q2.134-.85 4.262-1.692c.664-.262 1.125-.883.921-1.625-.172-.633-.957-1.188-1.62-.922l-4.262 1.688c-.665.261-1.125.886-.922 1.625.172.632.957 1.187 1.62.925m30.075-51.402c-.555-.324-1.527-.187-1.805.473a282 282 0 0 0-6.02 15.48c-.238.672.27 1.445.923 1.625.73.2 1.382-.25 1.62-.922a276 276 0 0 1 5.755-14.847c.277-.657.195-1.418-.473-1.809m2.617 7.5c-.758-.207-1.351.262-1.625.926q-1.077 2.644-2.16 5.293c-.27.66.293 1.449.922 1.625.758.207 1.351-.262 1.621-.926.723-1.762 1.441-3.527 2.164-5.29.27-.663-.293-1.452-.922-1.628" style="stroke:none;fill-rule:nonzero;fill:#000;fill-opacity:1"/><g clip-path="url(#b)"><path d="M73.707 88.598q.14.145.223.332a1.04 1.04 0 0 1 0 .785 1.1 1.1 0 0 1-.223.332 1.1 1.1 0 0 1-.332.223q-.189.077-.395.078a1.01 1.01 0 0 1-.723-.3 1 1 0 0 1-.222-.333 1.04 1.04 0 0 1 0-.785 1 1 0 0 1 .223-.332 1 1 0 0 1 .332-.223 1.04 1.04 0 0 1 .785 0q.186.075.332.223m0 0" style="stroke:none;fill-rule:nonzero;fill:#000;fill-opacity:1"/></g></svg>